<svg xmlns="http://www.w3.org/2000/svg" width="43.945" height="50">
      <path d="M21.972 0a16.106 16.106 0 00-13.1 25.489L20.739 44a1.465 1.465 0 002.466 0l11.916-18.577A16.113 16.113 0 0021.972 0zm0 23.437a7.324 7.324 0 117.324-7.324 7.333 7.333 0 01-7.324 7.324z" fill="#1f252c"/>
      <path d="M33.424 33.667l-7.376 11.532a4.843 4.843 0 01-8.152 0l-7.388-11.532C4.007 35.167 0 37.921 0 41.211 0 46.92 11.321 50 21.973 50s21.973-3.08 21.973-8.789c-.001-3.292-4.014-6.044-10.522-7.544z" fill="#1f252c"/>
</svg>
