<svg xmlns="http://www.w3.org/2000/svg" width="49.998" height="50">
    <path d="M47.256 19.571l-3.917-.5a19.688 19.688 0 00-1.185-2.863l2.419-3.108a3.1 3.1 0 00-.254-4.123l-3.281-3.285a3.105 3.105 0 00-4.138-.265l-3.11 2.419a19.617 19.617 0 00-2.863-1.186l-.5-3.91A3.12 3.12 0 0027.333 0h-4.666a3.12 3.12 0 00-3.1 2.744l-.5 3.917a19.389 19.389 0 00-2.865 1.185L13.1 5.427a3.1 3.1 0 00-4.123.254L5.692 8.96a3.106 3.106 0 00-.265 4.14l2.419 3.11a19.458 19.458 0 00-1.186 2.863l-3.91.5A3.12 3.12 0 000 22.667v4.667a3.12 3.12 0 002.744 3.1l3.917.5a19.687 19.687 0 001.185 2.856L5.427 36.9a3.1 3.1 0 00.254 4.123l3.281 3.281a3.108 3.108 0 004.135.262l3.112-2.419a19.234 19.234 0 002.862 1.185l.5 3.908A3.12 3.12 0 0022.667 50h4.667a3.12 3.12 0 003.1-2.744l.5-3.917a19.688 19.688 0 002.863-1.185l3.103 2.419a3.1 3.1 0 004.123-.254l3.281-3.281a3.1 3.1 0 00.265-4.135l-2.415-3.113a19.234 19.234 0 001.185-2.862l3.908-.5a3.12 3.12 0 002.75-3.1v-4.661a3.116 3.116 0 00-2.742-3.1zM25 35.417A10.417 10.417 0 1135.417 25 10.428 10.428 0 0125 35.417z" fill="#1f252c"/>
</svg>
