<svg xmlns="http://www.w3.org/2000/svg" width="50.01" height="50">
      <path d="M12.5 19.638H1.789A1.8 1.8 0 000 21.427v26.784A1.788 1.788 0 001.789 50H12.5a1.788 1.788 0 001.789-1.789V21.427a1.788 1.788 0 00-1.789-1.789z" fill="#1f252c"/>
      <path d="M30.359 0H19.648a1.786 1.786 0 00-1.789 1.779v46.432A1.788 1.788 0 0019.648 50h10.711a1.788 1.788 0 001.789-1.789V1.789A1.788 1.788 0 0030.359 0z" fill="#1f252c"/>
      <path d="M48.219 14.281H37.508a1.782 1.782 0 00-1.789 1.789v32.141A1.788 1.788 0 0037.508 50h10.711a1.788 1.788 0 001.789-1.789V16.07a1.788 1.788 0 00-1.789-1.789z" fill="#1f252c"/>
</svg>
