<svg xmlns="http://www.w3.org/2000/svg" width="41.715" height="50">
    <path d="M20.542 24.085a11.652 11.652 0 008.515-3.528 11.652 11.652 0 003.528-8.515 11.654 11.654 0 00-3.528-8.515 12.04 12.04 0 00-17.029 0A11.653 11.653 0 008.5 12.041a11.652 11.652 0 003.529 8.515 11.655 11.655 0 008.513 3.529zm0 0" fill="#1f252c"/>
    <path d="M41.614 38.447a29.746 29.746 0 00-.405-3.159 24.89 24.89 0 00-.777-3.176 15.688 15.688 0 00-1.306-2.962 11.18 11.18 0 00-1.969-2.566 8.682 8.682 0 00-2.829-1.777 9.775 9.775 0 00-3.611-.653 3.665 3.665 0 00-1.957.83c-.587.383-1.273.825-2.039 1.315a11.686 11.686 0 01-2.638 1.162 10.245 10.245 0 01-6.454 0 11.658 11.658 0 01-2.636-1.162c-.759-.485-1.445-.927-2.041-1.315a3.66 3.66 0 00-1.957-.83 9.762 9.762 0 00-3.611.654 8.675 8.675 0 00-2.829 1.777 11.18 11.18 0 00-1.968 2.566 15.72 15.72 0 00-1.306 2.963 24.951 24.951 0 00-.777 3.176 29.64 29.64 0 00-.405 3.16c-.066.957-.1 1.95-.1 2.953a8.3 8.3 0 002.466 6.281 8.877 8.877 0 006.354 2.318H32.9a8.875 8.875 0 006.354-2.318 8.3 8.3 0 002.466-6.282c-.005-1.009-.039-2.003-.106-2.955zm0 0" fill="#1f252c"/>
</svg>
